:SAMPLES-PER-SECOND 30
:FULLY-SPECIFIED
:DEGREES
389
root  -1.29356 5.82927 15.4151 -47.9946 -1.7135 3.16717
RightUpLeg  -87.5138 -12.3495 2.85448
RightLeg  88.9803 16.2056 -9.19802
RightFoot  31.5659 3.66808 -9.20426
RightToes  5.82077e-011 -3.18055e-015 -2.98177e-016
Spine  34.6657 -1.2017 6.49535
Spine1  -3.62985 -1.44465 -3.26329
HEad  -51.4272 5.19145 9.0846
LeftShoulder1  -3.88251e-019 9.70628e-020 -3.87848e-018
LeftArm  18.457 85.409 -22.0862
LeftForeArm  17.5115 -0.562136 -2.01772
LeftHand  -12.1417 -11.1263 75.0889
RightShoulder  6.83283 10.835 31.3453
RightArm  55.5937 -65.2578 -52.621
RightForeArm  4.32476 10.977 -4.75422
RightHand  -10.0311 8.9432 -70.4957
LeftUpLeg  -85.2851 5.35996 -0.672297
LeftLeg  87.585 -13.742 12.906
LeftFoot  34.4993 -0.743198 1.91407
LeftToes  5.91571e-011 -3.44359e-011 -3.93244e-011
390
root  -1.29742 5.83945 15.4043 -47.9723 -1.80532 3.14697
RightUpLeg  -87.477 -12.3329 2.96868
RightLeg  88.9354 16.1977 -9.1733
RightFoot  31.5187 3.64338 -9.15475
RightToes  5.82077e-011 -3.18055e-015 -2.98177e-016
Spine  35.0988 -1.19617 6.72597
Spine1  -6.05384 -1.40328 -3.50322
HEad  -53.1552 3.00033 8.96933
LeftShoulder1  -3.88251e-019 9.70628e-020 -3.87848e-018
LeftArm  22.349 85.5153 -16.9563
LeftForeArm  19.2155 -0.423018 -1.15926
LeftHand  -12.0894 -11.0675 75.0521
RightShoulder  6.84675 10.87 31.3451
RightArm  57.2829 -64.8085 -55.0505
RightForeArm  4.88152 10.494 -4.5315
RightHand  -9.97713 8.83084 -70.6264
LeftUpLeg  -85.2807 5.43182 -0.587943
LeftLeg  87.5773 -13.7387 12.864
LeftFoot  34.4855 -0.757705 1.94748
LeftToes  5.91571e-011 -3.44359e-011 -3.93244e-011
391
root  -1.29045 5.84648 15.3935 -47.9384 -1.92118 3.05502
RightUpLeg  -87.442 -12.3611 3.12112
RightLeg  88.8986 16.1897 -9.12399
RightFoot  31.4259 3.59701 -9.06251
RightToes  5.82077e-011 -3.18055e-015 -2.98177e-016
Spine  35.2502 -1.14828 7.03481
Spine1  -8.05468 -1.31779 -3.66018
HEad  -55.1085 0.432616 8.62605
LeftShoulder1  -3.88251e-019 9.70628e-020 -3.87848e-018
LeftArm  23.9485 85.5192 -14.2179
LeftForeArm  20.7725 -0.276579 -0.26992
LeftHand  -12.0251 -10.9987 74.9937
RightShoulder  6.91657 10.9271 31.585
RightArm  58.5735 -64.2371 -57.1341
RightForeArm  5.19046 10.1575 -4.41094
RightHand  -10.0073 8.80331 -70.895
LeftUpLeg  -85.3136 5.44651 -0.459779
LeftLeg  87.5651 -13.735 12.8364
LeftFoot  34.5078 -0.779325 1.99564
LeftToes  5.91571e-011 -3.44359e-011 -3.93244e-011
392
root  -1.27354 5.84805 15.3931 -47.9561 -1.93567 2.96807
RightUpLeg  -87.4084 -12.4762 3.18812
RightLeg  88.8852 16.1879 -9.12756
RightFoot  31.346 3.58171 -9.04246
RightToes  5.82077e-011 -3.18055e-015 -2.98177e-016
Spine  34.7564 -1.12165 7.39644
Spine1  -8.90376 -1.21025 -3.99825
HEad  -56.9558 -2.18008 8.36703
LeftShoulder1  -3.88251e-019 9.70628e-020 -3.87848e-018
LeftArm  20.8349 85.269 -16.3884
LeftForeArm  22.0229 -0.134225 0.574994
LeftHand  -12.037 -11.0319 74.9337
RightShoulder  7.0149 10.981 31.9744
RightArm  58.3961 -63.9217 -57.6747
RightForeArm  5.6637 9.33126 -4.42857
RightHand  -10.1139 8.89004 -71.1429
LeftUpLeg  -85.3099 5.33716 -0.401976
LeftLeg  87.5707 -13.736 12.8312
LeftFoot  34.5245 -0.790131 2.01946
LeftToes  5.91571e-011 -3.44359e-011 -3.93244e-011
393
root  -1.25582 5.85709 15.3951 -47.9275 -1.95344 2.91408
RightUpLeg  -87.4076 -12.5608 3.23992
RightLeg  88.8709 16.1841 -9.09558
RightFoot  31.2963 3.57567 -9.03841
RightToes  5.82077e-011 -3.18055e-015 -2.98177e-016
Spine  34.0639 -1.08016 7.77398
Spine1  -9.43476 -1.07969 -4.46923
HEad  -58.0854 -3.86606 8.28013
LeftShoulder1  -3.88251e-019 9.70628e-020 -3.87848e-018
LeftArm  16.0401 84.8947 -20.2229
LeftForeArm  23.2878 0.0309879 1.54073
LeftHand  -12.0684 -11.0979 74.8499
RightShoulder  7.05392 11.0168 32.0987
RightArm  57.8213 -63.9233 -57.6433
RightForeArm  6.32377 8.08833 -4.45242
RightHand  -10.1727 8.95025 -71.2314
LeftUpLeg  -85.3303 5.23793 -0.35336
LeftLeg  87.5913 -13.7389 12.7963
LeftFoot  34.5225 -0.787335 2.0132
LeftToes  5.91571e-011 -3.44359e-011 -3.93244e-011
394
root  -1.24403 5.87508 15.3872 -47.8012 -2.0379 2.87484
RightUpLeg  -87.4467 -12.5437 3.32283
RightLeg  88.8297 16.1732 -9.00165
RightFoot  31.278 3.55321 -8.9877
RightToes  5.82077e-011 -3.18055e-015 -2.98177e-016
Spine  33.8426 -0.995971 8.02928
Spine1  -10.777 -0.991751 -4.83409
HEad  -58.9 -4.69928 8.26941
LeftShoulder1  -3.88251e-019 9.70628e-020 -3.87848e-018
LeftArm  13.8524 84.7037 -21.2355
LeftForeArm  24.7239 0.225717 2.67552
LeftHand  -12.0433 -11.0781 74.8024
RightShoulder  6.9645 11.0242 31.6309
RightArm  58.0621 -64.196 -58.3986
RightForeArm  7.12699 6.73998 -4.52642
RightHand  -10.1117 8.88767 -71.1397
LeftUpLeg  -85.4144 5.23539 -0.284281
LeftLeg  87.5733 -13.7326 12.7342
LeftFoot  34.5381 -0.782733 2.00215
LeftToes  5.91571e-011 -3.44359e-011 -3.93244e-011
395
root  -1.23686 5.8889 15.3717 -47.6737 -2.08622 2.85611
RightUpLeg  -87.4915 -12.4882 3.34989
RightLeg  88.7594 16.161 -8.95732
RightFoot  31.3003 3.54384 -8.96015
RightToes  5.82077e-011 -3.18055e-015 -2.98177e-016
Spine  33.9479 -0.895385 7.96479
Spine1  -12.5269 -1.02011 -4.92585
HEad  -59.5646 -4.64467 8.30303
LeftShoulder1  -3.88251e-019 9.70628e-020 -3.87848e-018
LeftArm  14.9727 84.8235 -19.0231
LeftForeArm  25.8344 0.395382 3.65158
LeftHand  -12.0053 -11.0087 74.8676
RightShoulder  6.80565 11.0023 30.868
RightArm  57.1895 -64.7654 -58.351
RightForeArm  8.59729 4.54806 -4.93991
RightHand  -10.0282 8.81791 -70.9531
LeftUpLeg  -85.4902 5.25798 -0.280524
LeftLeg  87.4958 -13.7154 12.7074
LeftFoot  34.5709 -0.787662 2.01199
LeftToes  5.91571e-011 -3.44359e-011 -3.93244e-011
396
root  -1.23012 5.89464 15.3572 -47.6328 -2.06963 2.86142
RightUpLeg  -87.4912 -12.4487 3.30087
RightLeg  88.6802 16.1515 -8.98981
RightFoot  31.3222 3.55071 -8.97225
RightToes  5.82077e-011 -3.18055e-015 -2.98177e-016
Spine  33.7503 -0.770949 7.60495
Spine1  -13.4816 -1.08988 -4.69662
HEad  -60.1202 -4.02355 8.26542
LeftShoulder1  -3.88251e-019 9.70628e-020 -3.87848e-018
LeftArm  16.8071 85.1214 -16.6689
LeftForeArm  26.1391 0.480947 4.11804
LeftHand  -11.9699 -10.9423 74.9348
RightShoulder  6.68101 10.963 30.3094
RightArm  52.6212 -65.5608 -55.0403
RightForeArm  11.204 0.814465 -5.87731
RightHand  -10.0588 8.89264 -70.8358
LeftUpLeg  -85.4936 5.25285 -0.333191
LeftLeg  87.4234 -13.701 12.723
LeftFoot  34.566 -0.805303 2.05213
LeftToes  5.91571e-011 -3.44359e-011 -3.93244e-011
